<?xml version="1.0" encoding="utf-8"?>
<!-- Generator: Adobe Illustrator 23.1.0, SVG Export Plug-In . SVG Version: 6.00 Build 0)  -->
<svg version="1.1" id="Слой_1" xmlns="http://www.w3.org/2000/svg" xmlns:xlink="http://www.w3.org/1999/xlink" x="0px" y="0px"
	 viewBox="0 0 22.32 22.32" style="enable-background:new 0 0 22.32 22.32;" xml:space="preserve">
<style type="text/css">
	.st0{fill-rule:evenodd;clip-rule:evenodd;fill:#FAE298;}
	.st1{fill:#E9B39E;}
	.st2{fill:url(#SVGID_1_);}
	.st3{fill:url(#SVGID_2_);}
	.st4{fill:url(#SVGID_3_);}
	.st5{fill-rule:evenodd;clip-rule:evenodd;fill:url(#SVGID_4_);}
	.st6{fill:url(#SVGID_5_);}
	.st7{fill:url(#SVGID_6_);}
	.st8{fill:url(#SVGID_7_);}
	.st9{fill:url(#SVGID_8_);}
	.st10{fill:url(#SVGID_9_);}
	.st11{fill:url(#SVGID_10_);}
	.st12{fill:url(#SVGID_11_);}
	.st13{fill:url(#SVGID_12_);}
	.st14{fill:url(#SVGID_13_);}
	.st15{fill:url(#SVGID_14_);}
	.st16{fill:url(#SVGID_15_);}
	.st17{fill:url(#SVGID_16_);}
	.st18{fill:url(#SVGID_17_);}
	.st19{fill:#F9E7DA;}
</style>
<path class="st0" d="M11.23,22.11c6.08,0,11-4.92,11-11c0-6.08-4.92-11-11-11s-11,4.92-11,11C0.23,17.18,5.16,22.11,11.23,22.11z"/>
<path class="st1" d="M12.35,14.19c-0.34,0.36-0.83,0.32-1.04,0.26c-0.46-0.07-1-0.69-1.28-0.23c-0.28,0.46,1.25,1.46,2.39,0.81
	c1.14-0.66,1.02-1.2,0.82-1.33C13.04,13.57,12.78,13.75,12.35,14.19z"/>
<path class="st1" d="M12.35,14.19c-0.34,0.36-0.83,0.32-1.04,0.26c-0.46-0.07-1-0.69-1.28-0.23c-0.28,0.46,1.25,1.46,2.39,0.81
	c1.14-0.66,1.02-1.2,0.82-1.33C13.04,13.57,12.78,13.75,12.35,14.19z"/>
<g>
	
		<radialGradient id="SVGID_1_" cx="0.4015" cy="14.4263" r="1" gradientTransform="matrix(-0.2064 1.9816 1.2461 0.1298 -11.5937 8.8438)" gradientUnits="userSpaceOnUse">
		<stop  offset="0" style="stop-color:#E5AD97"/>
		<stop  offset="0.483" style="stop-color:#CC8D75"/>
	</radialGradient>
	<path class="st2" d="M5.32,11.63c0.2-0.68,1.15-0.8,1.6-0.77h0.58l-0.07,1.32l-0.07,1.32H6.83c-0.54-0.2-0.86-0.39-0.92-0.44
		C5.83,12.98,5.07,12.49,5.32,11.63z"/>
</g>
<g>
	
		<radialGradient id="SVGID_2_" cx="0.3919" cy="13.0069" r="1" gradientTransform="matrix(-0.177 1.8304 1.0705 0.1035 3.2098 9.4851)" gradientUnits="userSpaceOnUse">
		<stop  offset="0" style="stop-color:#E5AD97"/>
		<stop  offset="0.483" style="stop-color:#CC8D75"/>
	</radialGradient>
	<path class="st3" d="M17.55,12.39c-0.13,0.5-0.92,0.87-1.3,0.99h-0.37v-1.22l0.05-1.13l0.25-0.08l0.51,0.08
		C17.43,11.08,17.71,11.77,17.55,12.39z"/>
</g>
<g>
	
		<radialGradient id="SVGID_3_" cx="0.1303" cy="21.4995" r="1" gradientTransform="matrix(-1.1804 8.6623 7.0732 0.9639 -139.2078 -13.5116)" gradientUnits="userSpaceOnUse">
		<stop  offset="0" style="stop-color:#F3D3C7"/>
		<stop  offset="0.483" style="stop-color:#EDBDAB"/>
	</radialGradient>
	<path class="st4" d="M8.41,6.02C6.9,6.8,6.74,9.23,6.85,10.35v4.33c0,1.22,0.35,0.89,1.97,1.89c1.63,1,7.19,0.07,7.34-0.82
		c0.15-0.89,0.02-4.51,0-5.6c-0.02-1.09-0.26-2.93-1.22-3.79C13.99,5.51,10.31,5.05,8.41,6.02z"/>
</g>
<g>
	
		<radialGradient id="SVGID_4_" cx="-0.1141" cy="21.6985" r="1" gradientTransform="matrix(0.633 9.2178 8.2168 -0.5643 -167.3264 25.2996)" gradientUnits="userSpaceOnUse">
		<stop  offset="0" style="stop-color:#734C40"/>
		<stop  offset="0.5572" style="stop-color:#50342E"/>
	</radialGradient>
	<path class="st5" d="M6.83,11.88v6.78c0,0.31,0.19,0.59,0.47,0.73c0.14,0.08,0.29,0.15,0.39,0.2c1.1,0.53,3.35,1.6,3.51,1.61
		c0.08,0.01,0.25,0.01,0.41,0.01c0.27,0,0.54-0.06,0.79-0.18c1.05-0.47,2.78-1.27,3.49-1.64c0.29-0.15,0.33-0.55,0.34-0.88
		c0.02-1.42,0.06-5.48-0.01-7.5l-0.07,2.88c0,0.2-0.05,0.6-0.26,0.63c-0.03,0-0.06,0.01-0.11,0.01c-0.27,0.03-0.78,0.1-1.08,0.1
		c-0.35,0-0.67-0.2-0.79-0.44c-0.01-0.01-0.01-0.03-0.02-0.04c-0.1-0.22-0.13-0.27-0.16-0.55c-0.04-0.3-0.46-0.53-0.91-0.25
		c-0.13,0.08-0.26,0.17-0.38,0.26c-0.29,0.21-0.55,0.4-0.83,0.43c-0.38,0.05-0.59-0.13-0.74-0.26c-0.04-0.04-0.08-0.07-0.12-0.1
		c-0.16-0.1-0.89-0.25-1.07,0.48c-0.16,0.64-0.51,0.6-0.98,0.55c-0.06-0.01-0.13-0.01-0.2-0.02c-0.24-0.02-0.39-0.05-0.53-0.08
		c-0.13-0.03-0.26-0.06-0.44-0.07c-0.03,0-0.06,0-0.09-0.01c-0.18-0.01-0.38-0.02-0.42-0.19C7.01,14.3,7,14.24,7,14.17
		c-0.01-0.23-0.05-1.34-0.08-2.29c-0.02-0.47-0.03-0.91-0.04-1.18L6.83,11.88z M11.31,14.48c0.2,0.06,0.69,0.09,1.04-0.26
		c0.43-0.44,0.69-0.63,0.89-0.49c0.2,0.13,0.31,0.67-0.82,1.33c-1.14,0.66-2.67-0.35-2.39-0.81c0.18-0.3,0.47-0.14,0.78,0.02
		C10.97,14.36,11.15,14.45,11.31,14.48z"/>
</g>
<g>
	
		<radialGradient id="SVGID_5_" cx="-0.2627" cy="18.938" r="1" gradientTransform="matrix(0.4478 4.9066 2.6216 -0.2393 -43.3534 12.4826)" gradientUnits="userSpaceOnUse">
		<stop  offset="0" style="stop-color:#583A2E"/>
		<stop  offset="0.5464" style="stop-color:#322320"/>
	</radialGradient>
	<path class="st6" d="M6.94,10.75c0.01-0.7,0.03-1.08,0.05-1.23C6.99,9.48,7,9.44,7,9.4c0.01-0.69,0.17-2.13,0.76-2.8
		c0.76-0.87-0.2-1.2-0.43-1.17c-0.23,0.03-1.2,0.21-1.5,1.86c-0.17,0.96,0.14,2.37,0.51,3.56C6.45,11.21,6.93,11.12,6.94,10.75z"/>
</g>
<g>
	
		<radialGradient id="SVGID_6_" cx="0.0543" cy="18.0735" r="1" gradientTransform="matrix(-0.1317 2.9625 2.184 0.0971 -32.6957 4.7649)" gradientUnits="userSpaceOnUse">
		<stop  offset="0" style="stop-color:#633E37"/>
		<stop  offset="0.522" style="stop-color:#312220"/>
		<stop  offset="1" style="stop-color:#322320"/>
	</radialGradient>
	<path class="st7" d="M7.94,6.89C7.4,7.74,7.17,8.76,7.09,9.53c-0.02,0.19-0.32,0.25-0.4,0.08c-1.12-2.47-0.26-3.23,0-3.55
		C6.95,5.73,8.91,5.36,7.94,6.89z"/>
</g>
<g>
	
		<radialGradient id="SVGID_7_" cx="-0.3106" cy="21.4707" r="1" gradientTransform="matrix(0.4098 4.2925 6.9571 -0.6643 -141.2593 18.7355)" gradientUnits="userSpaceOnUse">
		<stop  offset="0" style="stop-color:#6B4834"/>
		<stop  offset="0.4461" style="stop-color:#3D2A27"/>
	</radialGradient>
	<path class="st8" d="M10.92,4.92c0,1.39-0.08,1.17-1.79,2.21C7.41,8.16,5.85,6.37,5.88,4.92C5.91,3.47,7.01,2.4,8.4,2.4
		C9.79,2.4,10.92,3.53,10.92,4.92z"/>
</g>
<g>
	
		<radialGradient id="SVGID_8_" cx="5.969052e-03" cy="18.3788" r="1" gradientTransform="matrix(-0.1403 4.3979 2.3297 0.0743 -27.0657 5.7077)" gradientUnits="userSpaceOnUse">
		<stop  offset="0" style="stop-color:#633E37"/>
		<stop  offset="0.522" style="stop-color:#312220"/>
		<stop  offset="1" style="stop-color:#322320"/>
	</radialGradient>
	<path class="st9" d="M17.27,7.52c-0.12-1.33-0.82-1.72-1.19-1.76c-0.02,0-0.04,0-0.06-0.01c-0.82-0.15-1.31,1.08-0.65,1.14
		c0.54,0.05,0.76,2.22,0.81,3.29v0.46c0,0.38,0.48,0.46,0.58,0.09C17.06,9.68,17.34,8.39,17.27,7.52z"/>
</g>
<g>
	
		<radialGradient id="SVGID_9_" cx="0.0183" cy="16.1414" r="1" gradientTransform="matrix(-0.0945 2.7669 1.5696 0.0536 -9.3409 5.9911)" gradientUnits="userSpaceOnUse">
		<stop  offset="0" style="stop-color:#633E37"/>
		<stop  offset="0.522" style="stop-color:#312220"/>
		<stop  offset="1" style="stop-color:#322320"/>
	</radialGradient>
	<path class="st10" d="M17.02,7.68c0,0.35-0.19,0.93-0.41,1.5c-0.13,0.33-0.58,0.25-0.62-0.1c-0.02-0.23-0.04-0.43-0.06-0.53
		c-0.07-0.38-0.31-0.92-0.4-1.3c-0.08-0.38,0.25-1.33,0.79-1.17C16.88,6.24,17.02,6.89,17.02,7.68z"/>
</g>
<g>
	
		<radialGradient id="SVGID_10_" cx="-0.4101" cy="19.6486" r="1" gradientTransform="matrix(0.1872 2.6293 3.1897 -0.227 -47.5338 10.3827)" gradientUnits="userSpaceOnUse">
		<stop  offset="0" style="stop-color:#6B4834"/>
		<stop  offset="0.4461" style="stop-color:#3D2A27"/>
	</radialGradient>
	<path class="st11" d="M15.61,7.45c0.33-0.16,1.05-1,0.69-2.04c-0.45-1.29-2.61-0.42-2.13,0.86c0.01,0.02,0.01,0.03,0.02,0.05
		C14.41,6.76,15.28,7.62,15.61,7.45z"/>
</g>
<g>
	
		<radialGradient id="SVGID_11_" cx="-0.3813" cy="20.4273" r="1" gradientTransform="matrix(0.2437 3.0608 4.1489 -0.3304 -71.4301 11.9293)" gradientUnits="userSpaceOnUse">
		<stop  offset="0" style="stop-color:#6B4834"/>
		<stop  offset="0.4461" style="stop-color:#3D2A27"/>
	</radialGradient>
	<path class="st12" d="M14.88,6c0.42-1.28-0.67-2.33-1.43-2.48c-0.78-0.15-1.25,0.68-1.36,1.47c-0.08,0.59-0.09,1.15-0.11,1.34
		c-0.03,0.33,0.68,0.66,1.08,0.71C13.46,7.08,14.46,7.28,14.88,6z"/>
</g>
<g>
	
		<radialGradient id="SVGID_12_" cx="-0.5871" cy="4.421" r="1" gradientTransform="matrix(0.0444 1.2109 0.5781 -0.0212 7.7517 12.0693)" gradientUnits="userSpaceOnUse">
		<stop  offset="0" style="stop-color:#454A66"/>
		<stop  offset="0.5698" style="stop-color:#1D1D27"/>
	</radialGradient>
	<path class="st13" d="M10.33,11.09L10.33,11.09c0.18,0,0.33,0.15,0.33,0.33v0.72c0,0.18-0.15,0.33-0.33,0.33l0,0
		c-0.18,0-0.33-0.15-0.33-0.33v-0.72C10,11.24,10.14,11.09,10.33,11.09z"/>
</g>
<g>
	
		<radialGradient id="SVGID_13_" cx="-0.5925" cy="3.4426" r="1" gradientTransform="matrix(0.0422 1.1821 0.5492 -0.0196 10.9971 12.0594)" gradientUnits="userSpaceOnUse">
		<stop  offset="0" style="stop-color:#454A66"/>
		<stop  offset="0.5698" style="stop-color:#1D1D27"/>
	</radialGradient>
	<path class="st14" d="M12.91,11.12L12.91,11.12c0.17,0,0.31,0.14,0.31,0.31v0.72c0,0.17-0.14,0.31-0.31,0.31l0,0
		c-0.17,0-0.31-0.14-0.31-0.31v-0.72C12.59,11.26,12.73,11.12,12.91,11.12z"/>
</g>
<g>
	
		<linearGradient id="SVGID_14_" gradientUnits="userSpaceOnUse" x1="13.4087" y1="12.9686" x2="13.3332" y2="12.3062" gradientTransform="matrix(1 0 0 -1 0 23.03)">
		<stop  offset="0" style="stop-color:#734840"/>
		<stop  offset="0.6846" style="stop-color:#352423"/>
	</linearGradient>
	<path class="st15" d="M12.73,9.87c-0.18-0.11-0.34-0.04-0.4,0c-0.03,0.03-0.05,0.07-0.05,0.12c0,0.12,0.16,0.44,0.94,0.44
		c0.77,0,1.17-0.59,1.28-0.72c0.12-0.13,0.13-0.25,0.05-0.25c-0.08,0-0.16,0.23-0.76,0.48C13.2,10.19,12.96,10.01,12.73,9.87z"/>
</g>
<g>
	
		<linearGradient id="SVGID_15_" gradientUnits="userSpaceOnUse" x1="9.7711" y1="13.4126" x2="9.8041" y2="12.8645" gradientTransform="matrix(1 0 0 -1 0 23.03)">
		<stop  offset="0" style="stop-color:#734840"/>
		<stop  offset="0.6846" style="stop-color:#352423"/>
	</linearGradient>
	<path class="st16" d="M10.24,9.77C9.96,9.66,9.52,9.7,9.34,9.74c-0.08,0.01-0.4,0.1-0.59,0.18C8.59,9.99,8.62,9.9,8.66,9.84
		c0.26-0.3,0.67-0.44,1.07-0.51c0.39-0.07,1.14,0,1.2,0.35C11,10.02,10.59,9.92,10.24,9.77z"/>
</g>
<g>
	
		<radialGradient id="SVGID_16_" cx="-0.2529" cy="4.6755" r="1.0006" gradientTransform="matrix(7.679577e-17 1.2542 0.5876 -3.598025e-17 8.954 12.8529)" gradientUnits="userSpaceOnUse">
		<stop  offset="0" style="stop-color:#FAECE4"/>
		<stop  offset="0.4545" style="stop-color:#F5D9C8"/>
		<stop  offset="1" style="stop-color:#EED4C5"/>
	</radialGradient>
	<path class="st17" d="M11.59,13.79c-0.32,0.01-0.45-0.28-0.48-0.43v-0.21c0.09-0.53,0.22-1.57,0.31-1.79
		c0.09-0.22,0.34,0.01,0.41,0.13c0.14,0.61,0.5,1.83,0.44,1.84c-0.07,0.02-0.13,0.07-0.15,0.15C12.12,13.56,11.99,13.77,11.59,13.79
		z"/>
</g>
<g>
	
		<radialGradient id="SVGID_17_" cx="-0.3107" cy="20.8229" r="1" gradientTransform="matrix(0.288 3.6981 4.9044 -0.382 -91.3176 12.4764)" gradientUnits="userSpaceOnUse">
		<stop  offset="0" style="stop-color:#6B4834"/>
		<stop  offset="0.4461" style="stop-color:#3D2A27"/>
	</radialGradient>
	<path class="st18" d="M9.24,5.68c-0.03,1.05,0.71,1.35,1.09,1.37c1,0.12,1.58-0.15,1.89-0.4c0.31-0.25,0.58-1.61,0.56-2.3
		c-0.02-0.69-0.56-1.73-2.07-1.6S9.27,4.36,9.24,5.68z"/>
</g>
<g>
	<ellipse class="st19" cx="11.68" cy="12.79" rx="0.16" ry="0.23"/>
</g>
</svg>
